<?xml version="1.0" standalone="no"?>
<!DOCTYPE svg PUBLIC "-//W3C//DTD SVG 20010904//EN"
 "http://www.w3.org/TR/2001/REC-SVG-20010904/DTD/svg10.dtd">
<svg version="1.0" xmlns="http://www.w3.org/2000/svg"
 width="300.000000pt" height="300.000000pt" viewBox="0 0 300.000000 300.000000"
 preserveAspectRatio="xMidYMid meet">
<metadata>
Created by potrace 1.10, written by Peter Selinger 2001-2011
</metadata>
<g transform="translate(0.000000,300.000000) scale(0.100000,-0.100000)"
fill="#000000" stroke="none">
<path d="M1405 2960 c-3 -5 -17 -10 -29 -10 -24 0 -111 -60 -136 -94 -8 -12
-23 -41 -33 -66 -16 -41 -16 -50 -2 -106 20 -82 20 -144 -1 -144 -19 0 -18 -8
20 -158 31 -122 45 -151 94 -197 35 -33 128 -85 151 -85 23 0 160 103 185 139
14 20 32 64 39 96 8 40 17 60 29 63 28 7 46 170 19 180 -11 3 -12 -6 -8 -49 3
-30 3 -47 0 -39 -4 8 -13 20 -21 26 -11 8 -12 15 -3 32 6 11 11 42 12 69 0 26
4 71 8 98 7 37 5 55 -5 70 -8 11 -14 30 -14 43 0 35 -40 82 -90 103 -25 11
-53 24 -62 29 -23 13 -145 13 -153 0z m91 -48 c0 -10 5 -16 12 -14 8 1 11 -2
8 -7 -11 -18 5 -38 30 -38 24 0 24 0 5 14 -28 19 -25 66 4 57 33 -11 65 -35
65 -51 0 -8 4 -12 9 -8 5 3 13 0 18 -7 13 -20 33 -81 33 -100 0 -10 6 -18 13
-18 8 -1 7 -5 -4 -13 -8 -7 -18 -21 -22 -32 -7 -20 -7 -20 9 0 16 19 16 19 10
-10 -4 -16 -7 -39 -8 -50 0 -13 -6 -6 -18 20 -10 22 -19 45 -19 52 -1 6 -6 15
-13 19 -21 13 1 -75 29 -118 38 -56 43 -144 14 -227 -12 -34 -21 -72 -21 -86
0 -14 -6 -25 -12 -25 -7 -1 -22 -15 -33 -33 -23 -36 -75 -48 -75 -18 0 14 -2
14 -10 1 -9 -13 -10 -13 -10 0 -1 12 -4 11 -15 -4 -8 -10 -12 -23 -9 -27 3 -5
-5 -5 -18 0 -13 5 -22 14 -20 20 2 9 -4 8 -20 0 -29 -16 -59 -19 -51 -6 4 6 0
8 -10 4 -16 -6 -32 17 -22 33 3 5 -2 7 -11 6 -8 -1 -19 -8 -23 -15 -5 -8 -14
2 -24 31 -8 24 -25 68 -36 98 -24 68 -26 128 -8 244 15 92 15 99 2 129 -5 13
-1 28 13 46 12 17 19 38 16 52 -2 13 -2 18 2 12 8 -18 24 -16 24 2 0 8 5 15
12 15 7 0 26 13 43 29 48 46 144 62 141 23z m-21 -762 c-2 -4 -16 -5 -30 -2
-24 4 -24 5 -8 17 18 14 48 1 38 -15z"/>
<path d="M1533 2823 c-7 -3 -13 -14 -12 -26 0 -12 3 -16 6 -9 4 10 8 10 19 1
20 -16 25 -8 11 17 -7 12 -18 19 -24 17z"/>
<path d="M1382 2763 c-18 -4 -22 -9 -16 -26 9 -32 12 -32 34 -12 20 18 23 18
53 3 49 -25 87 -30 119 -17 38 16 35 29 -7 30 -50 2 -53 3 -66 17 -13 12 -69
14 -117 5z"/>
<path d="M1322 2713 c-9 -14 -12 -15 -26 -4 -19 16 -31 9 -23 -12 8 -22 57
-31 75 -13 13 13 13 16 -1 30 -14 15 -17 15 -25 -1z"/>
<path d="M1520 2608 c-25 -6 -52 -16 -60 -23 -26 -21 -43 -22 -95 -3 -64 23
-92 23 -105 -1 -15 -28 -13 -33 9 -21 25 13 68 13 76 0 3 -6 -5 -10 -19 -10
-13 0 -31 -3 -40 -6 -21 -8 -21 -34 0 -34 8 0 12 -4 9 -10 -3 -6 4 -10 17 -10
20 1 21 2 6 11 -25 14 -23 32 3 24 13 -5 25 -2 30 6 10 16 20 8 22 -19 0 -12
6 -18 14 -15 16 6 17 33 1 33 -22 0 6 19 32 21 50 4 70 -1 70 -18 1 -17 1 -17
11 0 5 9 7 21 4 27 -3 5 12 14 33 21 30 9 44 8 61 -1 27 -14 41 -5 20 14 -21
21 -49 25 -99 14z"/>
<path d="M1522 2548 c5 -15 77 -18 81 -3 1 6 -18 11 -42 13 -32 2 -42 0 -39
-10z"/>
<path d="M1376 2395 c4 -10 -3 -18 -19 -24 -31 -12 -47 -39 -47 -78 l1 -28 20
28 c11 15 28 27 37 27 13 0 14 2 4 9 -24 15 9 29 71 30 54 1 78 -12 40 -22
-12 -3 -8 -5 9 -6 18 -1 33 -11 48 -33 l21 -33 -6 40 c-4 22 -11 45 -16 51
-10 13 -81 32 -119 33 -14 0 -26 5 -28 11 -2 5 -8 10 -13 10 -4 0 -6 -7 -3
-15z"/>
<path d="M1380 2291 c0 -25 63 -39 87 -19 24 20 13 28 -37 28 -27 0 -50 -4
-50 -9z"/>
<path d="M1676 2226 c-23 -59 -99 -156 -158 -200 -25 -20 -52 -49 -60 -66 -13
-31 -39 -46 -58 -35 -21 13 -40 79 -40 136 0 80 -17 83 -25 5 -6 -54 -4 -69
11 -93 11 -15 27 -45 38 -65 l18 -37 39 26 c27 18 39 33 39 50 0 22 42 73 61
73 24 0 170 192 173 227 3 35 -22 21 -38 -21z"/>
<path d="M1786 2079 c-9 -29 -13 -109 -5 -109 9 0 24 108 15 117 -3 3 -8 0
-10 -8z"/>
<path d="M1592 2016 c0 -28 3 -33 19 -29 11 3 22 9 25 14 9 16 33 10 58 -16
27 -27 56 -33 56 -12 0 14 -118 77 -143 77 -10 0 -15 -11 -15 -34z"/>
<path d="M1179 1973 c-13 -16 -17 -22 -9 -15 23 20 35 14 15 -8 -21 -24 -18
-25 25 -6 18 7 28 16 22 20 -6 4 -9 13 -5 21 9 25 -22 17 -48 -12z"/>
<path d="M1499 1908 c-33 -42 -16 -36 29 10 24 25 27 32 13 32 -5 0 -24 -19
-42 -42z"/>
<path d="M1345 1870 c17 -17 31 -26 33 -20 5 15 -27 50 -46 50 -11 0 -7 -9 13
-30z"/>
<path d="M986 1804 c-21 -63 -22 -231 0 -305 23 -82 68 -193 72 -180 2 6 -5
34 -16 63 -41 109 -57 191 -57 293 0 63 5 112 14 133 7 18 11 35 8 38 -2 3
-12 -16 -21 -42z"/>
<path d="M1335 1747 c-4 -31 -5 -62 -3 -69 3 -7 8 15 13 50 4 35 5 66 2 68 -3
3 -8 -19 -12 -49z"/>
<path d="M2062 1651 c-12 -74 -21 -136 -19 -138 7 -7 49 223 45 248 -2 13 -13
-36 -26 -110z"/>
<path d="M1971 1643 c-11 -49 -1 -339 13 -362 4 -5 14 -7 24 -4 13 5 15 4 7
-8 -5 -8 -10 -59 -9 -114 1 -85 5 -110 27 -162 18 -41 27 -81 27 -115 0 -28 7
-78 17 -111 12 -44 13 -61 4 -66 -13 -8 -13 -111 0 -111 26 0 32 63 26 255 0
11 3 43 7 70 5 33 4 45 -2 36 -13 -18 -44 84 -74 249 -13 69 -28 124 -33 123
-14 -2 -20 67 -20 230 0 75 -1 137 -2 137 0 0 -6 -21 -12 -47z"/>
<path d="M2120 1010 c-8 -5 -12 -12 -8 -15 9 -9 48 4 48 16 0 12 -21 11 -40
-1z"/>
<path d="M1053 864 c-7 -12 -8 -26 -3 -34 7 -12 10 -12 15 2 4 9 5 25 3 35 -4
17 -5 16 -15 -3z"/>
<path d="M1023 790 c-13 -5 -23 -12 -23 -15 0 -11 54 2 58 13 4 14 -4 14 -35
2z"/>
<path d="M2287 713 c-84 -44 -84 -53 1 -13 34 17 66 30 71 30 6 0 13 5 16 10
11 18 -19 9 -88 -27z"/>
<path d="M933 663 c-15 -6 -17 -49 -3 -58 6 -3 10 3 10 15 0 14 11 26 33 35
l32 14 -30 0 c-16 0 -36 -3 -42 -6z"/>
<path d="M992 630 c-23 -17 -42 -33 -42 -37 0 -3 8 1 18 10 9 8 29 20 45 26
15 6 27 15 27 21 0 14 -2 13 -48 -20z"/>
<path d="M1620 642 c0 -6 26 -16 58 -23 91 -19 84 -29 -22 -29 -53 0 -106 -5
-117 -10 -10 -6 -58 -12 -107 -14 -102 -4 -105 -5 -72 -17 18 -6 8 -8 -37 -6
-60 3 -63 2 -63 -20 0 -13 5 -23 12 -23 9 0 9 -3 0 -12 -7 -7 -12 -22 -12 -35
0 -21 4 -23 50 -23 41 0 56 5 78 26 20 19 22 23 7 16 -16 -7 -25 -4 -46 19
-30 31 -28 39 12 39 20 0 27 -4 23 -14 -3 -7 6 -20 20 -29 21 -14 25 -14 30
-2 3 9 -1 15 -9 15 -8 0 -15 6 -15 14 0 8 11 14 26 14 23 0 25 -3 20 -29 -5
-26 -3 -29 19 -29 16 0 25 6 25 15 0 8 -4 15 -10 15 -5 0 -10 10 -10 21 0 19
4 21 35 16 21 -3 33 -2 30 4 -4 5 5 9 19 9 31 0 35 -26 6 -35 -22 -7 -27 -31
-7 -38 6 -2 -1 -8 -18 -11 -16 -4 -39 -11 -50 -16 -18 -8 -18 -9 5 -9 14 -1
41 2 61 5 31 5 36 10 36 35 0 53 19 54 29 1 7 -35 5 -36 -104 -50 -43 -6 -61
-5 -60 2 2 6 0 12 -5 14 -17 5 -27 1 -27 -12 0 -9 -8 -12 -25 -8 -16 3 -25 0
-25 -8 0 -10 -15 -11 -61 -6 -33 3 -65 8 -70 12 -10 6 -12 94 -3 118 3 9 16
16 28 17 14 1 10 4 -14 11 -38 10 -149 17 -148 8 2 -28 -4 -50 -12 -45 -6 4
-8 21 -4 41 l6 34 -33 -6 c-42 -8 -75 -25 -44 -23 45 3 55 -1 55 -23 0 -33
-11 -45 -50 -57 l-35 -11 40 5 40 5 -51 -47 -51 -48 7 -85 c4 -47 10 -92 13
-100 3 -8 11 -61 18 -117 10 -87 15 -103 30 -103 22 0 28 17 18 59 -4 19 -5
39 -3 43 3 5 1 15 -5 22 -6 7 -11 43 -12 80 -1 52 -5 66 -15 62 -11 -4 -12 7
-8 57 7 75 11 90 23 83 5 -3 11 8 15 24 3 18 12 30 21 30 9 0 15 9 15 21 0 17
5 20 25 17 24 -5 36 7 14 14 -6 2 -8 14 -4 31 6 21 10 25 20 17 7 -6 11 -20 8
-30 -8 -29 12 -25 25 5 6 14 16 25 21 25 15 0 30 -25 26 -45 -2 -11 -4 -26 -4
-34 -1 -8 -7 -11 -18 -6 -10 4 -24 9 -30 12 -7 3 -13 0 -13 -6 0 -6 15 -14 33
-19 21 -5 32 -14 32 -26 0 -10 8 -23 18 -30 12 -10 17 -27 17 -61 0 -58 6 -56
13 3 2 23 7 45 9 48 3 2 48 5 101 6 54 1 97 4 97 8 0 4 39 12 88 18 104 13
197 34 310 68 67 20 82 28 82 45 0 11 4 18 9 15 4 -3 16 3 26 14 21 23 25 22
-90 25 -68 2 -131 14 -262 51 -14 4 -23 2 -23 -4z m215 -61 c3 -5 -4 -13 -15
-16 -12 -4 -19 -12 -17 -18 6 -19 37 -20 51 -2 13 18 61 12 73 -9 3 -6 3 -8
-2 -4 -4 4 -21 0 -37 -8 -16 -9 -36 -13 -43 -10 -7 2 -23 -4 -36 -15 -12 -10
-31 -19 -43 -18 -12 0 -15 3 -8 6 6 2 12 9 12 14 0 6 -5 7 -12 3 -6 -4 -36
-13 -65 -20 l-53 -12 -11 40 c-5 22 -8 42 -6 45 3 2 36 5 73 5 44 0 73 5 82
14 15 16 48 19 57 5z m-526 -77 c13 -29 6 -67 -12 -61 -12 4 -20 87 -8 87 4 0
13 -12 20 -26z"/>
<path d="M1688 533 c-27 -2 -48 -9 -48 -14 0 -7 14 -8 38 -5 20 4 56 7 79 8
23 1 40 5 37 10 -5 8 -13 8 -106 1z"/>
<path d="M2144 614 c-21 -17 -23 -17 61 6 l30 8 -36 1 c-19 1 -44 -6 -55 -15z"/>
<path d="M2222 591 c-8 -5 5 -8 32 -7 25 1 46 4 46 9 0 10 -62 9 -78 -2z"/>
<path d="M2012 559 c-13 -16 -18 -29 -12 -29 6 0 22 -24 35 -52 20 -42 22 -55
12 -63 -7 -5 -14 -26 -15 -45 -2 -19 -10 -40 -18 -46 -8 -6 -14 -20 -14 -31 0
-10 -16 -34 -35 -53 -20 -20 -35 -44 -35 -57 0 -13 -16 -55 -35 -93 -19 -38
-35 -74 -35 -80 0 -7 20 -10 52 -8 l51 3 33 65 c31 61 45 130 25 130 -5 0 -11
-17 -15 -38 -9 -58 -51 -139 -76 -147 -35 -11 -50 12 -22 35 12 10 22 23 22
29 0 6 6 25 14 43 8 18 22 52 31 75 16 38 88 123 105 123 4 0 15 -9 25 -20 10
-11 24 -20 32 -20 21 0 77 -60 93 -99 18 -45 14 -108 -11 -142 -23 -32 -25
-46 -4 -29 10 9 15 9 15 1 0 -6 4 -11 10 -11 9 0 33 73 44 138 5 32 0 37 -33
33 -7 -2 -10 2 -7 8 4 6 2 20 -5 32 -8 15 -8 19 0 15 6 -4 11 -2 11 3 0 6 -5
11 -10 11 -6 0 -19 8 -30 17 -10 10 -46 32 -79 48 -33 17 -61 34 -61 38 0 5 8
25 17 44 14 31 15 42 4 82 -14 54 -42 121 -50 120 -3 0 -16 -13 -29 -30z"/>
<path d="M2340 522 c0 -5 14 -12 30 -14 19 -3 29 -1 27 6 -4 14 -57 21 -57 8z"/>
<path d="M2190 491 c47 -10 97 -21 113 -26 15 -4 27 -3 27 2 0 12 -80 31 -160
37 l-65 5 85 -18z"/>
<path d="M1900 403 c0 -32 3 -75 6 -96 5 -30 9 -35 20 -26 8 6 11 16 6 23 -6
10 -10 41 -15 129 -4 51 -17 27 -17 -30z"/>
<path d="M2375 409 c-4 -6 -12 -8 -19 -6 -16 7 -50 -19 -37 -28 12 -7 71 24
71 37 0 11 -8 10 -15 -3z"/>
<path d="M2288 289 c-19 -11 -25 -39 -8 -39 5 0 13 8 19 18 8 14 12 15 22 5 7
-7 9 -13 3 -13 -5 0 -16 -16 -23 -36 -10 -28 -10 -39 -1 -47 6 -7 11 -7 10 -2
-5 26 1 45 15 45 21 0 21 66 -1 74 -19 7 -15 8 -36 -5z"/>
<path d="M1121 133 c13 -14 64 -18 55 -4 -3 5 -19 11 -36 13 -24 4 -27 2 -19
-9z"/>
<path d="M2071 91 c-7 -5 -11 -14 -7 -20 4 -6 0 -24 -9 -41 -20 -39 -5 -39 18
0 10 17 15 30 11 30 -4 0 1 9 11 20 14 15 15 20 4 20 -8 0 -20 -4 -28 -9z"/>
<path d="M1155 80 c17 -4 41 -8 55 -8 l25 0 -25 8 c-14 4 -38 8 -55 8 l-30 0
30 -8z"/>
<path d="M1449 67 c15 -19 111 -25 111 -7 0 6 -20 10 -44 10 -24 0 -53 3 -63
7 -16 6 -16 5 -4 -10z"/>
</g>
</svg>
